<mxfile host="app.diagrams.net" agent="Mozilla/5.0 (Windows NT 10.0; Win64; x64) AppleWebKit/537.36 (KHTML, like Gecko) Chrome/131.0.0.0 Safari/537.36" version="25.0.3">
  <diagram name="Página-1" id="NNcK9qNj-DYhnkzNMqoG">
    <mxGraphModel dx="1687" dy="922" grid="1" gridSize="10" guides="1" tooltips="1" connect="1" arrows="1" fold="1" page="1" pageScale="1" pageWidth="827" pageHeight="1169" math="0" shadow="0">
      <root>
        <mxCell id="0" />
        <mxCell id="1" parent="0" />
        <mxCell id="1o3MNnr9brXegVGV5sTs-1" value="" style="ellipse;shape=cloud;whiteSpace=wrap;html=1;fontStyle=1" vertex="1" parent="1">
          <mxGeometry y="140" width="310" height="300" as="geometry" />
        </mxCell>
        <mxCell id="1o3MNnr9brXegVGV5sTs-2" value="" style="ellipse;shape=cloud;whiteSpace=wrap;html=1;fontStyle=1" vertex="1" parent="1">
          <mxGeometry x="260" y="430" width="330" height="340" as="geometry" />
        </mxCell>
        <mxCell id="1o3MNnr9brXegVGV5sTs-3" value="" style="ellipse;shape=cloud;whiteSpace=wrap;html=1;fontStyle=1" vertex="1" parent="1">
          <mxGeometry x="520" y="100" width="307" height="300" as="geometry" />
        </mxCell>
        <mxCell id="1o3MNnr9brXegVGV5sTs-4" value="Logica del View y envio crudo al Controller" style="text;html=1;align=center;verticalAlign=top;whiteSpace=wrap;rounded=0;" vertex="1" parent="1">
          <mxGeometry x="60" y="430" width="220" height="60" as="geometry" />
        </mxCell>
        <mxCell id="1o3MNnr9brXegVGV5sTs-5" value="Logica de lo que se recibe de la vista y envio ya preparado para el model, donde se guarda la informacion." style="text;html=1;align=center;verticalAlign=top;whiteSpace=wrap;rounded=0;" vertex="1" parent="1">
          <mxGeometry x="330" y="760" width="220" height="60" as="geometry" />
        </mxCell>
        <mxCell id="1o3MNnr9brXegVGV5sTs-6" value="Logica de Slots.&lt;div&gt;¿Guardado a disco?&lt;/div&gt;&lt;div&gt;¿Convendra otra capa de persistencia? (Capa de servicio??)&lt;/div&gt;" style="text;html=1;align=center;verticalAlign=top;whiteSpace=wrap;rounded=0;" vertex="1" parent="1">
          <mxGeometry x="570" y="390" width="220" height="80" as="geometry" />
        </mxCell>
        <mxCell id="1o3MNnr9brXegVGV5sTs-7" value="VIEW" style="text;html=1;align=center;verticalAlign=top;whiteSpace=wrap;rounded=0;fontSize=25;fontStyle=1" vertex="1" parent="1">
          <mxGeometry x="45" y="120" width="220" height="40" as="geometry" />
        </mxCell>
        <mxCell id="1o3MNnr9brXegVGV5sTs-8" value="CONTROLLER" style="text;html=1;align=center;verticalAlign=top;whiteSpace=wrap;rounded=0;fontSize=25;fontStyle=1" vertex="1" parent="1">
          <mxGeometry x="315" y="410" width="220" height="40" as="geometry" />
        </mxCell>
        <mxCell id="1o3MNnr9brXegVGV5sTs-10" value="ITEM (InventoryManager)&lt;div&gt;&lt;br&gt;&lt;/div&gt;&lt;div&gt;&lt;br&gt;&lt;/div&gt;&lt;div&gt;InventoryManager.cs&lt;/div&gt;&lt;div&gt;&lt;br&gt;&lt;/div&gt;&lt;div&gt;&lt;br&gt;&lt;/div&gt;&lt;div&gt;UpdateSlots()&lt;/div&gt;&lt;div&gt;&lt;br&gt;&lt;/div&gt;&lt;div&gt;&lt;br&gt;&lt;/div&gt;&lt;div&gt;ControllerInventory (Prop)&lt;/div&gt;" style="text;html=1;align=left;verticalAlign=top;whiteSpace=wrap;rounded=0;" vertex="1" parent="1">
          <mxGeometry x="74" y="223" width="200" height="150" as="geometry" />
        </mxCell>
        <mxCell id="1o3MNnr9brXegVGV5sTs-9" value="MODEL" style="text;html=1;align=center;verticalAlign=top;whiteSpace=wrap;rounded=0;fontSize=25;fontStyle=1" vertex="1" parent="1">
          <mxGeometry x="570" y="80" width="220" height="40" as="geometry" />
        </mxCell>
        <mxCell id="1o3MNnr9brXegVGV5sTs-11" value="" style="endArrow=classic;html=1;rounded=0;" edge="1" parent="1">
          <mxGeometry width="50" height="50" relative="1" as="geometry">
            <mxPoint x="160" y="249.9982706766918" as="sourcePoint" />
            <mxPoint x="160" y="270" as="targetPoint" />
          </mxGeometry>
        </mxCell>
        <mxCell id="1o3MNnr9brXegVGV5sTs-12" value="" style="endArrow=classic;html=1;rounded=0;" edge="1" parent="1">
          <mxGeometry width="50" height="50" relative="1" as="geometry">
            <mxPoint x="130" y="287.9982706766918" as="sourcePoint" />
            <mxPoint x="130" y="308" as="targetPoint" />
          </mxGeometry>
        </mxCell>
        <mxCell id="1o3MNnr9brXegVGV5sTs-14" value="*&lt;sub&gt;1&lt;/sub&gt;" style="text;html=1;align=left;verticalAlign=top;whiteSpace=wrap;rounded=0;fontSize=21;" vertex="1" parent="1">
          <mxGeometry x="210" y="240" width="50" height="40" as="geometry" />
        </mxCell>
        <mxCell id="1o3MNnr9brXegVGV5sTs-15" value="" style="endArrow=classic;html=1;rounded=0;exitX=0.8;exitY=0.8;exitDx=0;exitDy=0;exitPerimeter=0;entryX=0.25;entryY=0.25;entryDx=0;entryDy=0;entryPerimeter=0;" edge="1" parent="1" source="1o3MNnr9brXegVGV5sTs-1" target="1o3MNnr9brXegVGV5sTs-2">
          <mxGeometry width="50" height="50" relative="1" as="geometry">
            <mxPoint x="280" y="510" as="sourcePoint" />
            <mxPoint x="330" y="460" as="targetPoint" />
          </mxGeometry>
        </mxCell>
        <mxCell id="1o3MNnr9brXegVGV5sTs-16" value="ControllerInventory.cs (Singleton)&lt;div&gt;&lt;br&gt;&lt;/div&gt;&lt;div&gt;&lt;br&gt;&lt;/div&gt;&lt;div&gt;AddItem(Item item)&lt;/div&gt;&lt;div&gt;&lt;br&gt;&lt;/div&gt;&lt;div&gt;&lt;br&gt;&lt;/div&gt;&lt;div&gt;MoveItem(Item item)&lt;/div&gt;&lt;div&gt;&lt;br&gt;&lt;/div&gt;&lt;div&gt;&lt;br&gt;&lt;/div&gt;&lt;div&gt;ModelInventory (Prop)&lt;/div&gt;" style="text;html=1;align=left;verticalAlign=top;whiteSpace=wrap;rounded=0;" vertex="1" parent="1">
          <mxGeometry x="335" y="530" width="200" height="150" as="geometry" />
        </mxCell>
        <mxCell id="1o3MNnr9brXegVGV5sTs-21" value="Inventory.cs (Singleton o Static??)&lt;div&gt;&lt;br&gt;&lt;/div&gt;&lt;div&gt;&lt;br&gt;&lt;/div&gt;&lt;div&gt;AddItem(Item item)&lt;/div&gt;&lt;div&gt;&lt;br&gt;&lt;/div&gt;&lt;div&gt;&lt;br&gt;&lt;/div&gt;&lt;div&gt;MoveItem(Item item)&lt;/div&gt;" style="text;html=1;align=left;verticalAlign=top;whiteSpace=wrap;rounded=0;" vertex="1" parent="1">
          <mxGeometry x="590" y="185" width="200" height="150" as="geometry" />
        </mxCell>
        <mxCell id="1o3MNnr9brXegVGV5sTs-22" value="MVC. -- Inventario. -- Robin Magic." style="text;html=1;align=center;verticalAlign=top;whiteSpace=wrap;rounded=0;fontSize=25;fontStyle=1" vertex="1" parent="1">
          <mxGeometry x="4" width="820" height="40" as="geometry" />
        </mxCell>
        <mxCell id="1o3MNnr9brXegVGV5sTs-23" value="*&lt;sub&gt;1 -- Item fisico (gameObject empty) en Hierarchy.&lt;/sub&gt;" style="text;html=1;align=left;verticalAlign=top;whiteSpace=wrap;rounded=0;fontSize=21;" vertex="1" parent="1">
          <mxGeometry x="20" y="830" width="790" height="80" as="geometry" />
        </mxCell>
        <mxCell id="1o3MNnr9brXegVGV5sTs-24" value="¿MVCR?" style="text;html=1;align=center;verticalAlign=top;whiteSpace=wrap;rounded=0;fontSize=19;fontStyle=1" vertex="1" parent="1">
          <mxGeometry x="607" y="460" width="183" height="40" as="geometry" />
        </mxCell>
      </root>
    </mxGraphModel>
  </diagram>
</mxfile>
